PathFileType	4	(x/y/z)	S02_M20_T05
DataRate	CameraRate	NumFrames	NumMarkers	Units	OrigDataRate	OrigDataStartFrame	OrigNumFrames
240	240	4	51	mm	240	345	459
Frame#	Time	Sternum			R.Acromium			L.Acromium			Top.Head			R.ASIS			L.ASIS			R.PSIS			L.PSIS			R.Great.Tro			L.Great.Tro			R.Iliac.Crest			L.Iliac.Crest			V.Sacral			R.Thigh.Upper.Post			R.Thigh.Lower.Ant			R.Thigh.Lower.Post			R.Thigh.Upper.Ant			R.Knee.Lat			R.Knee.Med			R.Shank.Upper.Post			R.Shank.Lower.Ant			R.Shank.Lower.Post			R.Shank.Upper.Ant			R.Ankle.Lat			R.Ankle.Med			R.Heel.Upper			R.Heel.Med			R.Heel.Lat			R.Toe.Lat			R.Toe.Med			R.Toe.Tip			L.Thigh.Upper.Post			L.Thigh.Lower.Ant			L.Thigh.Lower.Post			L.Thigh.Upper.Ant			L.Knee.Lat			L.Knee.Med			L.Shank.Upper.Post			L.Shank.Lower.Ant			L.Shank.Lower.Post			L.Shank.Upper.Ant			L.Ankle.Lat			L.Ankle.Med			L.Heel.Upper			L.Heel.Med			L.Heel.Lat			L.Toe.Lat			L.Toe.Med			L.Toe.Tip			Cervical.Spine			Back			
		X1	Y1	Z1	X2	Y2	Z2	X3	Y3	Z3	X4	Y4	Z4	X5	Y5	Z5	X6	Y6	Z6	X7	Y7	Z7	X8	Y8	Z8	X9	Y9	Z9	X10	Y10	Z10	X11	Y11	Z11	X12	Y12	Z12	X13	Y13	Z13	X14	Y14	Z14	X15	Y15	Z15	X16	Y16	Z16	X17	Y17	Z17	X18	Y18	Z18	X19	Y19	Z19	X20	Y20	Z20	X21	Y21	Z21	X22	Y22	Z22	X23	Y23	Z23	X24	Y24	Z24	X25	Y25	Z25	X26	Y26	Z26	X27	Y27	Z27	X28	Y28	Z28	X29	Y29	Z29	X30	Y30	Z30	X31	Y31	Z31	X32	Y32	Z32	X33	Y33	Z33	X34	Y34	Z34	X35	Y35	Z35	X36	Y36	Z36	X37	Y37	Z37	X38	Y38	Z38	X39	Y39	Z39	X40	Y40	Z40	X41	Y41	Z41	X42	Y42	Z42	X43	Y43	Z43	X44	Y44	Z44	X45	Y45	Z45	X46	Y46	Z46	X47	Y47	Z47	X48	Y48	Z48	X49	Y49	Z49	X50	Y50	Z50	X51	Y51	Z51	

345	1.4333	385.81	1086.2	277.1	276.11	1325.9	404.62	272.32	1314.3	111.62	297.92	1609.2	253.37	343.69	901.1	401.59	381.67	906.22	187.55	138.5	939.05	315.67	143.6	948.35	241.3	246.83	779.6	480.05	280.72	827.04	85.882	237.99	951.09	446.96	266.77	956.86	105.68	119.33	895.39	265.06	264.71	589.89	483.47	324.12	507.6	471.94	251.35	500.64	472.67	333.38	596.77	478.7	262.88	424.21	470.14	283.33	396.29	330.15	69.089	347.43	432.73	51.867	239.23	417.62	16.254	297.43	418.96	102.86	283.56	439.4	-46.92	222.44	400.81	-15.937	222.76	320.16	-73.461	270.8	342.54	-89.268	249.48	307.22	-107.62	252.97	369.81	-56.243	102.76	413.16	-20.636	82.109	310.38	12.125	48.265	371.95	303.76	590.94	121.11	397.9	535.99	136.6	325.25	506.8	149.56	367.48	622.14	109.2	399.2	453.18	153.25	389.67	457.73	289.12	317.79	280.62	160.74	386.3	194.75	181.81	315.11	208.44	179.62	382.14	268.84	162.4	339.53	94.778	196.79	349.08	95.827	280.21	277.62	67.576	235.21	287.17	42.02	269.3	282.19	39.201	207.5	448.2	35.041	174.98	471.99	45.453	284.84	530.89	60.512	236.37	195.03	1382.5	259.32	123.06	1129.7	279.64
346	1.4375	390.59	1087.4	277.03	280.75	1327.2	404.49	277.25	1315.3	111.33	303.4	1610.4	253.43	348.74	902.76	401.45	386.4	907.09	187.32	143.42	940.43	315.36	148.53	949.63	240.99	252.66	781.12	479.8	284.56	827.72	85.774	242.82	952.64	446.56	271.56	957.8	105.41	124.18	896.73	264.86	273.35	591.3	483.88	333.57	509.63	472.14	260.89	501.9	473.17	341.9	598.89	478.78	273.26	425.52	470.46	293.37	398.07	330.3	79.967	347.24	432.92	63.758	238.91	417.65	27.601	296.78	419.12	114.34	283.66	439.46	-35.053	221.5	400.74	-3.959	221.94	320.29	-62.917	268.68	341.94	-78.088	246.55	306.83	-96.661	250.25	369.32	-41.423	101.94	414.41	-5.1387	81.012	311.99	28.422	48.814	373.96	305.95	591.65	121.33	399.67	535.91	136.47	326.8	507.35	149.68	369.92	622.27	109.16	400.33	453.15	153.12	391.39	457.78	289.08	318.36	280.86	160.76	386.62	194.76	181.74	315.5	208.69	179.65	382.68	268.87	162.35	339.63	94.894	196.81	349.19	95.926	280.22	277.66	67.703	235.21	287.21	42.137	269.29	282.23	39.336	207.49	448.23	35.03	174.97	472.04	45.431	284.84	530.94	60.424	236.36	199.99	1383.7	258.96	128.01	1130.9	279.06
347	1.4417	395.35	1088.6	276.96	285.36	1328.4	404.36	282.17	1316.3	111.05	308.86	1611.6	253.53	353.77	904.42	401.28	391.09	907.97	187.07	148.35	941.83	315.1	153.43	950.92	240.73	258.52	782.67	479.58	288.31	828.4	85.69	247.66	954.19	446.17	276.29	958.73	105.17	129	898.08	264.73	281.95	592.74	484.25	342.98	511.7	472.3	270.39	503.2	473.62	350.37	601.06	478.84	283.61	426.88	470.72	303.42	399.9	330.42	90.869	346.99	433.06	75.743	238.51	417.7	39.011	296.04	419.25	125.87	283.72	439.52	-23.065	220.39	400.69	8.1372	220.95	320.42	-52.22	266.35	341.37	-66.736	243.43	306.49	-85.539	247.34	368.87	-26.47	101.02	415.69	10.491	79.841	313.63	44.832	49.312	375.98	308.11	592.39	121.54	401.4	535.84	136.35	328.33	507.92	149.78	372.33	622.42	109.12	401.44	453.14	152.99	393.06	457.85	289.04	318.92	281.1	160.76	386.94	194.8	181.68	315.88	208.95	179.68	383.22	268.92	162.29	339.74	95.015	196.82	349.29	96.031	280.22	277.7	67.834	235.21	287.26	42.26	269.28	282.27	39.474	207.48	448.25	35.016	174.95	472.09	45.41	284.82	531	60.333	236.34	204.91	1384.8	258.61	132.93	1132.1	278.47
348	1.4458	400.09	1089.8	276.9	289.93	1329.7	404.23	287.08	1317.4	110.8	314.29	1612.7	253.65	358.8	906.07	401.1	395.75	908.84	186.8	153.27	943.24	314.9	158.31	952.2	240.52	264.39	784.25	479.39	291.98	829.08	85.63	252.54	955.74	445.81	280.95	959.65	104.95	133.81	899.44	264.65	290.49	594.2	484.61	352.34	513.82	472.42	279.85	504.54	474.03	358.79	603.25	478.88	293.93	428.3	470.93	313.47	401.78	330.51	101.8	346.67	433.16	87.818	238.04	417.77	50.481	295.19	419.36	137.45	283.75	439.58	-10.957	219.13	400.67	20.349	219.8	320.56	-41.366	263.84	340.83	-55.21	240.14	306.19	-74.248	244.25	368.47	-11.388	100.02	416.98	26.239	78.606	315.28	61.337	49.76	378	310.26	593.15	121.75	403.11	535.79	136.24	329.83	508.52	149.88	374.72	622.59	109.08	402.52	453.15	152.87	394.66	457.92	289	319.47	281.35	160.75	387.26	194.85	181.62	316.26	209.22	179.69	383.74	268.98	162.24	339.84	95.141	196.83	349.4	96.141	280.21	277.75	67.968	235.21	287.31	42.39	269.27	282.31	39.615	207.47	448.28	35.001	174.94	472.14	45.39	284.81	531.06	60.241	236.33	209.81	1386	258.27	137.84	1133.3	277.87
